<svg xmlns="http://www.w3.org/2000/svg" width="24" height="24" viewBox="0 0 24 24"><path d="M3.699.029a4.69 4.69 0 0 0-1.822.717c-.333.22-.762.632-1.008.957-.275.363-.612 1.063-.745 1.544l-.113.4v16.69l.113.4c.132.481.469 1.182.745 1.545a4.577 4.577 0 0 0 2.125 1.514c.665.212.333.204 9.007.204 8.678 0 8.345.008 9.006-.208a4.53 4.53 0 0 0 2.125-1.51c.277-.368.618-1.069.748-1.545l.109-.4V3.647l-.113-.4c-.131-.479-.467-1.181-.744-1.545a4.851 4.851 0 0 0-1.007-.957A5.269 5.269 0 0 0 20.74.113l-.394-.108-8.205-.004C7.629-.004 3.827.009 3.699.029zm11.183 4.415c1.264.208 2.128.624 2.693 1.296.239.285.519.85.637 1.27.072.276.083.432.087 1.121.004.725-.004.832-.087 1.117-.244.849-.777 1.5-1.637 2.006l-.296.171.211.068c.323.108.865.389 1.141.597.689.521 1.168 1.329 1.361 2.293.092.48.092 1.509-.004 1.95-.379 1.733-1.721 2.937-3.739 3.341-.772.157-.972.165-5.12.165H6.076V4.344l4.195.016c3.755.012 4.234.02 4.611.084zm-5.364 4.37v1.826l1.934-.016c1.814-.02 1.951-.024 2.242-.104.913-.248 1.309-.772 1.309-1.733 0-.736-.26-1.213-.825-1.493-.5-.249-1.041-.3-3.166-.304H9.518v1.824zm0 6.26v2.127l2.113-.017c2.375-.017 2.454-.025 3.039-.308.672-.329.972-.866.972-1.742 0-1.128-.448-1.753-1.481-2.064-.291-.092-.347-.092-2.468-.108l-2.175-.012v2.126-.002z"/></svg>