<svg xmlns="http://www.w3.org/2000/svg" width="24" height="24" viewBox="0 0 24 24"><path d="M23.546 10.932L13.068.453a1.546 1.546 0 0 0-2.187 0L8.706 2.629l2.76 2.761a1.837 1.837 0 0 1 2.326 2.339l2.66 2.66a1.83 1.83 0 0 1 1.9.437 1.84 1.84 0 0 1-2.602 2.6 1.841 1.841 0 0 1-.4-2l-2.481-2.481v6.528a1.838 1.838 0 0 1 .485 2.951c-.717.72-1.882.72-2.6 0a1.842 1.842 0 0 1 0-2.603c.178-.176.383-.312.603-.399v-6.59a1.839 1.839 0 0 1-.999-2.412l-2.72-2.722-7.185 7.185a1.546 1.546 0 0 0 0 2.187l10.479 10.479a1.545 1.545 0 0 0 2.186 0l10.43-10.43a1.55 1.55 0 0 0 0-2.188l-.002.001z"/></svg>