<svg xmlns="http://www.w3.org/2000/svg" width="24" height="24" viewBox="0 0 24 24"><path d="M16.721.018c-.025.019-.689.708-1.474 1.534l-1.425 1.5-.57 2.223-1.591.028c-2.959.063-4.707.3-5.03.685-.061.071-.052.094.057.189.775.665 6.887.859 9.712.313 1.002-.194 1.259-.438.711-.669-.412-.181-1.928-.429-2.606-.429-.185 0-.228-.014-.228-.085 0-.043.104-.479.228-.964l.224-.884 1.33-1.405c.731-.773 1.334-1.443 1.346-1.481.046-.214-.518-.67-.684-.555zM6.68 6.6c0 .144.574 5.548.603 5.633.009.038.057-.033.104-.171.422-1.183 1.262-2.185 1.975-2.351.347-.081.608.004.889.285.308.309.365.641.128.769-.119.062-.233-.024-.385-.3-.327-.584-.936-.276-1.591.816-.693 1.149-.874 2.423-.347 2.423.194 0 .665-.371.993-.778.223-.285.308-.442.432-.808.081-.247.175-.476.213-.503a.312.312 0 0 1 .199-.039c.123.015.133.034.147.238.009.156-.028.347-.133.642-.138.389-.294.888-.589 1.866-.066.223-.152.451-.194.508-.104.146-.252.138-.318-.014-.048-.101-.034-.205.1-.651.086-.294.171-.574.185-.627.015-.062-.095.021-.299.209-.475.442-.94.628-1.215.479-.081-.043-.091-.033-.091.08 0 .36.342 3.601.384 3.651.143.171 1.154.461 2.18.623.784.122 3.017.122 3.8 0 .674-.108 1.41-.28 1.767-.413.503-.186.44.02.727-2.445.138-1.203.247-2.195.238-2.199-.009-.01-.162.104-.338.252-.38.322-.632.445-.912.451-.251 0-.38-.063-.437-.219-.067-.167.022-.361.383-.809.404-.498.472-.594.472-.693 0-.214-.49.01-.771.352-.09.115-.224.301-.293.414-.162.252-.58 1.205-.789 1.801-.162.461-.313.674-.469.674-.092 0-.244-.113-.244-.182 0-.125.152-.508.434-1.121.181-.389.326-.717.326-.727 0-.009-.09.053-.203.143-.271.225-.57.367-.756.367-.18 0-.371-.115-.371-.219 0-.086.01-.091-.289.075-.452.247-.708.156-.708-.256v-.19l-.194.204c-.357.366-.841.493-1.106.285-.171-.133-.167-.446.014-.987.328-.97.579-1.35.802-1.206.138.085.114.223-.104.674-.375.772-.398 1.14-.066 1.043.318-.09.698-.588.964-1.252.071-.186.161-.371.204-.419.104-.118.262-.086.314.067.033.1 0 .231-.186.688-.152.371-.232.637-.232.777-.004.205 0 .215.133.205.171-.015.446-.193.483-.322.148-.479 1.244-3.158 1.33-3.253.096-.095.133-.108.242-.066.081.028.139.086.148.147.009.057-.081.323-.199.594-.466 1.077-1.073 2.636-1.073 2.754 0 .076.024.133.048.133.113 0 .428-.199.769-.489.304-.266.375-.353.442-.563.18-.552.312-.708.506-.604.078.043.09.086.072.214-.015.091-.015.162 0 .162.014 0 .122-.086.237-.194.36-.328.669-.409.954-.233.133.081.152.119.152.3 0 .247-.19.585-.59 1.055-.146.172-.266.332-.266.36 0 .022.047.042.109.042.104 0 .902-.611 1.078-.826.053-.066.162-.941.414-3.253.187-1.738.338-3.168.328-3.173-.005-.009-.129.028-.277.081-.369.128-1.172.266-2.137.365-1.045.104-4.583.119-5.619.023-.964-.09-1.895-.237-2.29-.365l-.339-.111v.104L6.68 6.6zm1.424 11.783c0 .01.152.275.333.59l.337.573.138 1.908.143 1.915.143.123c.356.305 1.211.475 2.541.504 1.511.033 2.688-.156 3.074-.504l.151-.135.109-1.926.108-1.925.31-.541c.17-.295.309-.552.309-.569 0-.015-.143.019-.323.08-.642.219-1.891.412-3 .476-1.235.067-3.149-.167-4.118-.503-.139-.049-.253-.076-.253-.066h-.002z"/></svg>