<svg xmlns="http://www.w3.org/2000/svg" width="24" height="24" viewBox="0 0 24 24"><g fill-rule="evenodd" clip-rule="evenodd"><path fill="#FFF" d="M.06.062h23.994v23.989H.06V.062zm4.279 4.369c-.871 1.504-1.575 3.046-2 4.71-.307 1.205-.427 2.415-.142 3.638.505 2.163 1.83 3.794 3.48 5.174 1.343 1.123 2.995 1.492 4.691 1.657 1.265.123 2.533.11 3.796-.054 1.111-.145 2.194-.402 3.19-.935 1.517-.811 2.601-2.072 3.515-3.485.812-1.252 1.239-2.636 1.135-4.14a11.222 11.222 0 0 0-.3-1.883c-.403-1.657-1.116-3.189-1.983-4.675-.102.077-.189.14-.273.207-2.395 1.901-4.79 3.8-7.179 5.708-.185.147-.297.147-.481 0-1.81-1.449-3.627-2.887-5.443-4.328a902.253 902.253 0 0 0-2.006-1.594z"/><path d="M4.339 4.431l2.007 1.592c1.815 1.441 3.633 2.879 5.443 4.328.184.147.296.147.481 0 2.389-1.908 4.785-3.807 7.179-5.708.084-.067.172-.129.273-.207.867 1.486 1.58 3.018 1.983 4.675.15.616.256 1.251.3 1.883.104 1.504-.323 2.888-1.135 4.14-.914 1.413-1.998 2.675-3.515 3.485-.996.532-2.079.79-3.19.935a16.795 16.795 0 0 1-3.796.054c-1.697-.165-3.349-.534-4.691-1.657-1.651-1.38-2.975-3.011-3.48-5.174-.286-1.223-.166-2.433.142-3.638.424-1.662 1.128-3.204 1.999-4.708z"/></g></svg>