<svg xmlns="http://www.w3.org/2000/svg" width="24" height="24" viewBox="0 0 24 24"><path d="M12.247 20.271c-.16-.037-.314-.088-.47-.133l-.117-.035a20.091 20.091 0 0 1-.454-.147c-.021-.008-.042-.017-.061-.022-.134-.048-.268-.098-.4-.147-.038-.015-.075-.028-.112-.044a11.576 11.576 0 0 1-.432-.18c-.028-.013-.057-.025-.085-.039-.123-.055-.244-.11-.364-.168-.035-.018-.069-.032-.105-.049-.095-.047-.188-.099-.282-.146-.063-.033-.125-.063-.188-.099a22.222 22.222 0 0 1-.337-.188c-.038-.021-.076-.04-.115-.063a12.264 12.264 0 0 1-.439-.269c-.04-.024-.079-.053-.119-.078a14.132 14.132 0 0 1-.313-.208c-.033-.021-.066-.048-.1-.07a13 13 0 0 1-.691-.521c-.04-.033-.08-.063-.12-.097a32.68 32.68 0 0 1-.333-.28c-.01-.011-.024-.019-.035-.029a15.143 15.143 0 0 1-.448-.411c-.085-.082-.168-.162-.251-.246l-.098-.1a13.497 13.497 0 0 1-.308-.326l-.016-.017c-.106-.115-.209-.235-.313-.354-.027-.033-.054-.063-.081-.097-.076-.092-.152-.187-.225-.278a2.868 2.868 0 0 1-.083-.103c-.088-.116-.175-.229-.259-.347-2.341-3.192-3.182-7.598-1.31-11.215L1.524 5.869C-.6 8.923-.336 12.898 1.287 16.144c.039.078.078.154.12.231.025.048.048.099.075.146.015.029.032.058.047.084.028.054.057.103.084.151.05.089.102.177.154.267l.089.145c.059.096.119.188.179.281.026.039.051.081.077.117.085.127.172.252.26.377.002.005.006.008.008.011l.043.06a10.003 10.003 0 0 0 .327.429c.071.091.145.18.219.27l.085.1a12.593 12.593 0 0 0 .312.357c.004.005.008.009.011.015.101.11.205.221.311.326.032.035.065.068.099.102.081.082.165.162.248.242a32.816 32.816 0 0 0 .447.413c.019.018.04.033.06.051.101.088.205.175.309.262.042.033.085.066.128.102.085.069.171.137.257.202l.137.104c.095.068.191.141.29.207.034.023.068.05.104.074.01.006.02.014.029.021.091.063.187.124.281.187.04.024.079.055.121.08.146.092.292.182.439.271.041.022.081.046.122.067.109.063.219.125.33.187.06.03.121.063.181.094.079.04.157.083.236.123.018.009.037.019.054.024.032.017.063.031.097.048a15.989 15.989 0 0 0 .454.209c.144.063.288.124.435.182.035.017.071.028.106.042a12.763 12.763 0 0 0 .922.32l.111.033c.157.047.313.103.474.133 10.278 1.875 13.266-6.178 13.266-6.178-2.508 3.269-6.959 4.13-11.177 3.171l-.001-.013zm-3.704-8.332c.231.331.486.724.791.989.11.12.227.24.346.357.029.031.061.06.091.09.115.111.231.221.352.327l.015.013.003.004c.133.116.272.229.413.34.03.023.061.051.094.073.139.107.283.214.43.313l.014.011c.064.044.131.086.195.13l.094.063c.104.066.211.133.319.194.015.011.03.017.044.025.093.054.188.106.282.157.033.02.068.035.101.053l.197.102a5.93 5.93 0 0 0 .442.205c.029.014.06.024.09.038.111.048.224.095.336.138.049.019.098.035.145.054a10.352 10.352 0 0 0 .451.151c.149.047.294.104.448.131C22.168 17.211 24 11.101 24 11.101c-1.65 2.379-4.85 3.515-8.264 2.627a8.829 8.829 0 0 1-.449-.129l-.135-.045c-.105-.033-.211-.07-.314-.106-.048-.021-.095-.036-.143-.056-.113-.043-.228-.09-.338-.136-.03-.014-.063-.026-.092-.039-.14-.061-.277-.125-.414-.19-.07-.034-.14-.071-.207-.106-.041-.021-.08-.039-.119-.062-.09-.049-.178-.099-.262-.147l-.063-.035a11.218 11.218 0 0 1-.318-.194l-.097-.063a24.373 24.373 0 0 1-.205-.137 12.369 12.369 0 0 1-.428-.313l-.098-.076c-1.493-1.18-2.677-2.792-3.242-4.619-.59-1.895-.462-4.023.56-5.75l-1.255 1.77c-1.537 2.212-1.454 5.172-.255 7.512.201.393.428.772.68 1.135l.001-.003zm8.366-2.735c.065.025.131.046.198.068l.086.027c.095.029.187.064.283.081 4.381.847 5.57-2.248 5.887-2.704-1.043 1.499-2.791 1.859-4.938 1.338a5.7 5.7 0 0 1-.521-.162 6.323 6.323 0 0 1-1.698-.915C14.285 5.48 13.092 2.7 14.346.436l-.679.934c-.907 1.332-.995 2.989-.366 4.461.662 1.563 2.021 2.79 3.605 3.372l.003.001z"/></svg>