<svg xmlns="http://www.w3.org/2000/svg" width="24" height="24" viewBox="0 0 24 24"><path d="M0 0v24h24V0H0zm12.525 20.529c-.354.72-1.028 1.191-1.812 1.42-1.202.275-2.352.119-3.208-.396-.572-.352-1.021-.891-1.322-1.514l1.825-1.119c.017.008.063.096.128.205.231.393.434.667.828.859.388.133 1.238.218 1.568-.465.2-.348.136-1.484.136-2.718 0-1.94.009-3.849.009-5.811h2.245c0 2.062.011 4.128 0 6.187.008 1.262.116 2.411-.397 3.352zm9.314-.633c-.778 2.668-5.132 2.756-6.868.992-.367-.414-.599-.633-.816-1.111.925-.531.925-.531 1.822-1.051.488.75.94 1.162 1.752 1.33 1.104.135 2.211-.244 1.963-1.414-.254-.957-2.256-1.188-3.618-2.209-1.382-.93-1.706-3.187-.569-4.475.378-.479 1.023-.833 1.702-1.004l.707-.092c1.356-.028 2.206.33 2.829 1.026.172.175.313.365.578.775-.723.462-.721.457-1.756 1.128a1.688 1.688 0 0 0-.978-.906c-.603-.181-1.36.017-1.519.653-.057.195-.043.379.043.702.244.558 1.063.799 1.798 1.136 2.114.857 2.829 1.778 3.005 2.873.169.944-.042 1.556-.075 1.647z"/></svg>