<svg xmlns="http://www.w3.org/2000/svg" xmlns:xlink="http://www.w3.org/1999/xlink" width="24" height="24" viewBox="0 0 24 24"><defs><path id="a" d="M2.163 1.979h19.15v20.042H2.163z"/></defs><clipPath id="b"><use xlink:href="#a" overflow="visible"/></clipPath><path clip-path="url(#b)" fill="#050505" d="M21.246 15.03a1.05 1.05 0 0 0-.731-.577c-.11-.504-.264-.751-.276-.788.058-.066.113-.133.127-.148.466-.578.161-1.426-.636-1.625-.448-.432-.854-.634-1.187-.801-.319-.159-.192-.097-.492-.232-.079-.39-.105-1.296-.232-1.933-.113-.572-.343-.986-.695-1.259a2.815 2.815 0 0 0-.579-.842c1.111-1.703 1.403-3.386.59-4.267-.362-.393-.9-.579-1.544-.579-.906 0-2.021.369-3.146 1.053l-.749-.602C8.559-.039-.309 10.872 2.822 13.257l.808.617c-.507 1.411.198 3.093 1.669 3.634.324.119.677.177 1.042.156 0 0 2.375 4.355 7.387 4.357 5.797.002 7.271-5.669 7.287-5.721 0 .001.469-.694.231-1.27z"/><path fill="#FFF" d="M3.063 12.535c-.636-1.072.47-3.274 1.256-4.526 1.944-3.094 5.18-5.535 6.649-5.186l.403-.155 1.105.934c.759-.456 1.727-.92 2.63-1.013-.55.124-1.22.409-2.015.895-.02.011-1.88 1.267-3.017 2.395-.618.614-3.104 3.597-3.103 3.594.455-.86.755-1.282 1.475-2.188.406-.512.841-1.01 1.286-1.469a16.305 16.305 0 0 1 1.056-.998c.065-.057.132-.112.198-.166L9.527 3.447l.077.54 1.06.934s-.938.631-1.403 1.029c-1.87 1.595-3.704 4.044-4.388 6.428l.033-.001a3.034 3.034 0 0 0-.973.896c-.007-.002-.762-.556-.87-.738zM6.155 17.013c-1.12 0-2.028-.956-2.028-2.135s.908-2.135 2.028-2.135c.29 0 .566.064.815.18 0 0 .432.218.553 1.245.126-.321.189-.585.189-.585.145.441.219.907.189 1.377.12-.16.249-.461.249-.461.224 1.313-.734 2.514-1.995 2.514zM20.432 16.02c-.026.052-.301 1.539-1.873 2.774-1.985 1.56-4.593 1.402-5.577.528-.526-.492-.754-1.196-.754-1.196s-.06.396-.07.553c-.396-.676-.363-1.5-.363-1.5s-.212.395-.309.616c-.292-.744-.142-1.512-.142-1.512l-.23.345s-.108-.841.157-1.542c.284-.749.836-1.293.945-1.361-.419-.133-.9-.514-.901-.514 0 0 .191.013.324-.019 0 0-.845-.605-.993-1.532.122.151.379.322.379.322-.083-.243-.133-.782-.056-1.313l.001-.001a1.936 1.936 0 0 1 1.943-1.667c1.008.009 1.684.221 2.529-.56.18-.165.322-.307.573-.363.026-.006.092-.033.227-.033a.74.74 0 0 1 .388.103c.459.273.558.985.606 1.507.183 1.937.109 1.591.893 1.99.374.19.794.371 1.271.883l.004.004h.006c.402.01.611.327.425.559-1.353 1.615-3.241 2.389-5.347 2.453l-.283.007c-.851.025-1.127 1.125-.594 1.787.337.418.985.555 1.52.558l.008-.003c2.301.046 4.613-1.582 5.013-2.48l.027-.063c-.093.108-2.334 2.219-5.059 2.143 0 0-.298-.006-.578-.071-.37-.086-.651-.249-.759-.617.226.045.512.075.845.075 1.966 0 3.383-.895 3.235-.906a.095.095 0 0 0-.021.003c-.229.054-2.593.969-4.088.499a.847.847 0 0 1 .021-.129c.133-.445.369-.383.751-.4a8.265 8.265 0 0 0 3.288-.779c.879-.417 1.55-.955 1.791-1.227.313.527.312 1.204.312 1.204s.122-.043.285-.043c.511-.003.616.455.23.918zM10.948 7.38c2.184-1.415 4.364-1.578 5.111-1.003a.458.458 0 0 0-.019-.046c-.189-.403-.632-.685-1.026-.797.069.072.17.204.21.282a3.135 3.135 0 0 0-1.105-.47s.049.035.058.043c.082.077.191.198.236.302-.395-.158-.893-.247-1.32-.165l-.053.012s.056.014.067.018c.143.042.344.128.434.247-.709-.125-1.488.013-1.909.248.055-.002.055-.002.1-.001.154.004.467.025.597.108-.447.091-1.094.291-1.441.59.062-.007.41-.051.553-.028-1.918 1.095-2.79 2.753-2.79 2.753.565-.736 1.298-1.445 2.297-2.093z"/><path fill="#231F20" d="M10.917 3.528l.27.087-.218-.792-.129.394.077.311zM11.663 4.134l-.92-.281.608.509c.088-.067.194-.144.312-.228zM12.126 3.821l-.446-.374.162.563c.089-.061.183-.124.284-.189zM13.998 11.802c.182.07.304.124.339.084.017-.02.006-.066-.037-.129-.112-.164-.327-.305-.519-.375a1.376 1.376 0 0 0-1.321.227c-.186.15-.268.306-.183.318.052.008.16-.038.313-.096.604-.228.945-.202 1.408-.029zM14.067 12.35c.112.007.188.014.205-.017.039-.066-.26-.292-.668-.223-.051.008-.098.023-.145.036a.806.806 0 0 0-.32.186c-.097.093-.124.18-.097.201.028.022.095-.011.198-.053.348-.143.593-.147.827-.13zM6.876 14.148c.107.151.073.239.117.281.016.017.038.021.061.012.061-.024.09-.121.096-.188.016-.161-.07-.343-.184-.472a1.07 1.07 0 0 0-.641-.343 1.418 1.418 0 0 0-.54.03c-.034.01-.076.019-.111.032-.644.251-.922.878-.788 1.502.033.15.101.321.206.432v.001c.132.143.276.115.214-.018-.015-.036-.094-.187-.104-.458-.011-.279.054-.569.232-.79.132-.162.295-.235.314-.246.022-.012.047-.021.072-.032a.227.227 0 0 1 .034-.011c.082-.023.036-.014.119-.031.442-.093.761.099.903.299z"/><path fill="#231F20" d="M6.677 14.611a.187.187 0 0 1-.075-.108c-.018-.081-.009-.129.062-.179.054-.036.097-.054.097-.077.003-.044-.177-.089-.304.035-.104.111-.137.343.03.523.186.2.474.247.519.499a.547.547 0 0 1-.008.228c-.056.243-.286.476-.667.416-.069-.011-.115-.02-.129 0-.029.041.134.228.432.221.426-.009.779-.441.694-.926-.077-.421-.496-.508-.651-.632zM16.598 11.854c-.025.158.049.301.164.318.115.019.229-.096.253-.253.025-.158-.049-.302-.164-.319-.116-.019-.229.095-.253.254zM15.756 12.428c.158.087.339.063.401-.052.064-.116-.013-.28-.172-.367-.158-.087-.339-.063-.401.053-.063.115.014.279.172.366zM13.752 16.517zM13.752 16.626l.001.007-.001-.007zM13.758 16.688v.003-.003zM13.759 16.694zM16.183 11.018c.23-.02.456.021.646.116-.015-.55-.335-1.17-.576-1.086h-.001c-.142.046-.165.295-.162.445.007.181.034.348.093.525zM11.663 4.134l-.92-.281.608.509c.088-.067.194-.144.312-.228zM13.998 11.802c.182.07.304.124.339.084.017-.02.006-.066-.037-.129-.112-.164-.327-.305-.519-.375a1.376 1.376 0 0 0-1.321.227c-.186.15-.268.306-.183.318.052.008.16-.038.313-.096.604-.228.945-.202 1.408-.029zM14.067 12.35c.112.007.188.014.205-.017.039-.066-.26-.292-.668-.223-.051.008-.098.023-.145.036a.806.806 0 0 0-.32.186c-.097.093-.124.18-.097.201.028.022.095-.011.198-.053.348-.143.593-.147.827-.13z"/><path fill="#231F20" d="M6.876 14.148c.107.151.073.239.117.281.016.017.038.021.061.012.061-.024.09-.121.096-.188.016-.161-.07-.343-.184-.472a1.07 1.07 0 0 0-.641-.343 1.418 1.418 0 0 0-.54.03c-.034.01-.076.019-.111.032-.644.251-.922.878-.788 1.502.033.15.101.321.206.432v.001c.132.143.276.115.214-.018-.015-.036-.094-.187-.104-.458-.011-.279.054-.569.232-.79.132-.162.295-.235.314-.246.022-.012.047-.021.072-.032a.227.227 0 0 1 .034-.011c.082-.023.036-.014.119-.031.442-.093.761.099.903.299z"/><path fill="#231F20" d="M6.677 14.611a.187.187 0 0 1-.075-.108c-.018-.081-.009-.129.062-.179.054-.036.097-.054.097-.077.003-.044-.177-.089-.304.035-.104.111-.137.343.03.523.186.2.474.247.519.499a.547.547 0 0 1-.008.228c-.056.243-.286.476-.667.416-.069-.011-.115-.02-.129 0-.029.041.134.228.432.221.426-.009.779-.441.694-.926-.077-.421-.496-.508-.651-.632zM16.598 11.854c-.025.158.049.301.164.318.115.019.229-.096.253-.253.025-.158-.049-.302-.164-.319-.116-.019-.229.095-.253.254zM15.756 12.428c.158.087.339.063.401-.052.064-.116-.013-.28-.172-.367-.158-.087-.339-.063-.401.053-.063.115.014.279.172.366zM19.12 20.509l.057.18.056-.18h.13v.313h-.083v-.226l-.067.226h-.071l-.067-.226v.226h-.085v-.313h.13zm-.433.075v-.075h.276v.075h-.094v.237h-.091v-.237h-.091z"/></svg>