<svg xmlns="http://www.w3.org/2000/svg" width="24" height="24" viewBox="0 0 24 24"><path d="M.352.596c-.602.602-.451 1.295.602 2.858.542.813 1.173 2.076 1.415 2.798.241.752.721 1.775 1.052 2.287.602.843.602 1.023.21 2.558-.241.962-.331 2.167-.21 2.918.18 1.264 1.203 3.1 1.835 3.311.542.179 1.324-.782 1.354-1.654 0-.753.03-.783.36-.242.572.934 2.377 2.918 2.527 2.769.06-.06-.331-.843-.902-1.716-.542-.901-1.174-2.075-1.414-2.616-.331-.902-.451-.964-.843-.542-.241.24-.542.932-.631 1.563-.241 1.445-.782 1.625-1.203.393s-.421-3.34 0-4.783c.3-.992.271-1.264-.241-2.016-.331-.457-.843-1.54-1.114-2.411-.271-.845-.903-2.107-1.414-2.77-1.173-1.654-1.173-2.257.06-2.018.511.092 1.294.452 1.775.784.451.33 1.233.601 1.714.601 1.445 0 3.972 1.414 5.807 3.25 1.415 1.413 2.136 2.557 3.671 5.656 1.805 3.67 1.956 3.881 3.069 4.24 1.323.453 4.091 2.137 4.091 2.498 0 .121-.693.302-1.533.36-2.258.242-2.469.662-.994 1.986.692.601 1.986 1.532 2.918 2.046L24 23.67l-.781-.994c-.451-.542-1.385-1.384-2.105-1.836-.723-.449-1.295-.931-1.295-1.052s.512-.331 1.145-.421c1.684-.303 2.165-.452 2.165-.752 0-.452-3.038-2.738-4.481-3.371-1.233-.571-1.385-.813-2.98-4.091-1.415-3.009-1.984-3.853-3.79-5.657-2.316-2.315-3.911-3.31-5.958-3.61-.692-.12-1.654-.479-2.076-.782C2.848.351.833.08.351.593l.001.003z"/></svg>