<svg xmlns="http://www.w3.org/2000/svg" width="24" height="24" viewBox="0 0 24 24"><path d="M6.028 8.587H1.819L0 17.801h2.161l.456-2.388h2.047c1.933.114 4.094-1.479 4.094-4.208 0-1.593-.909-2.504-2.73-2.618zm-1.592 5.121H3.071l.569-3.413h1.478c.796 0 1.366.342 1.366 1.023-.115 1.934-1.024 2.275-2.048 2.39zm9.212-5.121h-2.047l.455-2.388H9.895l-1.819 9.213h2.161l1.023-5.118h1.707c.797 0 .797.342.682.911l-.795 4.208h2.274l.795-4.664c.227-1.136-.456-2.046-2.275-2.162zm7.622 0h-4.209L15.242 17.8h2.16l.455-2.388h2.047c1.935.113 4.096-1.478 4.096-4.207 0-1.593-.911-2.504-2.73-2.618zm-1.594 5.121h-1.363l.567-3.413h1.479c.797 0 1.365.342 1.365 1.023-.113 1.934-1.024 2.275-2.048 2.39z"/></svg>