<svg xmlns="http://www.w3.org/2000/svg" width="24" height="24" viewBox="0 0 24 24"><path d="M23.46 14.535c-.256-.297-.694-.217-1.033-.149-.813.146-1.696.314-2.483-.024 1.406-2.219 2.512-4.643 3.131-7.199.225-.972.398-1.966.365-2.967-.023-.561-.103-1.157-.443-1.621A6.428 6.428 0 0 0 19.567.28c-1.691-.458-3.506-.322-5.168.192-.137.028-.273-.034-.407-.051-1.51-.307-3.174-.186-4.483.688C7.936.542 6.247.201 4.574.376c-1.244.129-2.493.708-3.207 1.767C.464 3.465.342 5.153.486 6.702c.29 2.057.792 4.083 1.43 6.058.42 1.23.883 2.473 1.631 3.549.38.526.885 1.061 1.564 1.144.604.073 1.15-.302 1.521-.746a53.362 53.362 0 0 1 1.982-2.246c.446.22.93.345 1.425.382-.269.317-.49.732-.916.857-.575.222-1.249.192-1.755.575-.293.209-.307.664-.044.904.475.461 1.174.561 1.806.613.895.068 1.8-.232 2.479-.818-.004 1.422.002 2.851.163 4.266.08.828.437 1.656 1.068 2.213.594.52 1.442.627 2.196.496.739-.143 1.5-.363 2.079-.869.615-.542.877-1.361 1-2.146.221-1.406.388-2.819.548-4.234 1.582.267 3.372-.036 4.556-1.191.252-.239.49-.652.241-.974zM19.949 1.151a5.748 5.748 0 0 1 2.427 1.78c.302.379.341.888.36 1.353.014 1.109-.211 2.206-.496 3.272a23.285 23.285 0 0 1-2.413 5.629 4.752 4.752 0 0 1-.337.5c-.012-.049-.029-.146-.04-.194.129-.341.319-.661.392-1.021.26-1.017.042-2.063-.053-3.086-.098-.965.232-1.906.223-2.869.038-.472-.148-.917-.33-1.341-.656-1.467-1.701-2.772-3.039-3.668-.326-.224-.691-.381-1.017-.606 1.423-.305 2.95-.267 4.323.251zm-.868 8.236c.083 1.143.415 2.37-.123 3.454-.724-1.438-1.657-2.81-1.981-4.41-.092-.509-.115-1.153.338-1.508.572-.407 1.322-.315 1.986-.275-.027.917-.31 1.816-.218 2.739h-.002zm-12.913 6.77c-.259.305-.609.669-1.051.577-.516-.148-.845-.62-1.133-1.043-.778-1.244-1.247-2.649-1.676-4.043-.481-1.651-.887-3.328-1.12-5.033-.117-1.297-.043-2.689.62-3.845.498-.875 1.425-1.433 2.398-1.615 1.561-.3 3.16.018 4.657.475a6.867 6.867 0 0 0-1.475 2.516 10.13 10.13 0 0 0-.498 3.891c.057.925.032 1.854-.097 2.772-.163 1.198.319 2.431 1.208 3.239-.605.709-1.247 1.384-1.833 2.109zm1.366-4.292c-.153-.679.047-1.362.069-2.042.053-.771-.002-1.54-.017-2.309.719-.465 1.56-.829 2.432-.779.451.02.868.338.977.783.396 1.576.518 3.33-.24 4.823a14.113 14.113 0 0 0-.664 1.777c-1.262.014-2.334-1.052-2.557-2.253zm3.924 4.218c-.792 1.073-2.376 1.276-3.521.694.564-.262 1.225-.241 1.77-.563.527-.284.736-.909 1.229-1.229.537-.077.929.72.522 1.098zm6.79-1.253c-.3.484-.195 1.075-.27 1.613-.172 1.509-.342 3.018-.588 4.516-.117.719-.42 1.48-1.098 1.838-.695.354-1.501.575-2.283.455-.74-.13-1.208-.822-1.418-1.495-.154-.563-.17-1.153-.214-1.735a53.366 53.366 0 0 1-.04-4.215c.031-.548-.25-1.119-.74-1.386-.237-.133-.514-.151-.779-.173.208-1.032.836-1.922 1.052-2.953.28-1.274.125-2.602-.161-3.861-.14-.628-.618-1.184-1.253-1.337-.98-.246-1.968.137-2.844.546.112-1.423.493-2.881 1.364-4.036a4.048 4.048 0 0 1 2.697-1.572c1.752-.223 3.593.259 4.984 1.355 1.149.909 2.059 2.141 2.548 3.525-.813-.029-1.737-.062-2.396.504-.597.503-.674 1.362-.539 2.083.312 1.716 1.323 3.174 2.069 4.718.199.36.466.677.72 1.001-.302.152-.639.299-.811.609zm2.096 1.214c-.537.063-1.097.082-1.615-.095.002-.294-.015-.643.222-.861.188-.138.452-.265.669-.113.917.481 1.984.246 2.96.127-.598.584-1.423.853-2.236.942zm-2.821-8.906c-.189.157.016.392.18.465.398.233.943-.093.957-.548-.36-.167-.81-.15-1.137.083zm-7.042.725c.169-.096.349-.36.152-.519-.279-.228-.686-.271-1.026-.179-.11.038-.225.113-.203.247.079.458.69.735 1.077.451z"/></svg>