<svg xmlns="http://www.w3.org/2000/svg" width="24" height="24" viewBox="0 0 24 24"><path d="M9.124 11.572h5.718c1.594 0 2.864-1.31 2.864-2.91V3.21c0-1.552-1.31-2.718-2.864-2.976A17.79 17.79 0 0 0 11.86 0a16.33 16.33 0 0 0-2.736.234C6.701.661 6.259 1.558 6.259 3.21v2.182h5.726v.728H4.11c-1.664 0-3.122 1-3.578 2.903-.526 2.182-.548 3.542 0 5.82.406 1.695 1.38 2.903 3.044 2.903h1.968V15.13c0-1.89 1.636-3.557 3.577-3.557l.003-.001zm-.361-7.634a1.082 1.082 0 0 1-1.076-1.087c0-.604.48-1.095 1.076-1.095.591 0 1.074.491 1.074 1.095 0 .601-.483 1.087-1.074 1.087zM23.43 9.022c-.41-1.656-1.195-2.903-2.863-2.903h-2.148v2.542c0 1.971-1.671 3.631-3.577 3.631h-5.72c-1.566 0-2.862 1.34-2.862 2.909v5.451c0 1.553 1.349 2.465 2.862 2.91 1.813.533 3.551.629 5.72 0 1.441-.416 2.862-1.258 2.862-2.91V18.47h-5.718v-.727h8.583c1.664 0 2.283-1.161 2.863-2.904.595-1.792.571-3.516-.002-5.817zm-8.227 10.905a1.08 1.08 0 0 1 1.074 1.087c0 .604-.48 1.096-1.074 1.096a1.087 1.087 0 0 1-1.075-1.096 1.08 1.08 0 0 1 1.075-1.087z"/></svg>