<svg xmlns="http://www.w3.org/2000/svg" width="24" height="24" viewBox="0 0 24 24"><path d="M23.964 15.732c-.083-.696-.442-1.237-.983-1.662-.627-.49-1.361-.692-2.146-.725a4.835 4.835 0 0 0-1.864.288c-.172.062-.34.136-.513.205-.022-.042-.048-.082-.067-.124-.178-.361-.392-.708-.438-1.124-.034-.296-.076-.591-.006-.883.068-.281.156-.557.238-.835.045-.143.015-.223-.121-.287a.579.579 0 0 0-.151-.049 2.327 2.327 0 0 0-.989.073c-.115.034-.199.098-.225.225-.014.073-.045.143-.064.215-.084.299-.144.604-.279.888a27.794 27.794 0 0 1-1.283 2.318c-.142-.294-.29-.558-.337-.868-.051-.352-.092-.701-.004-1.049.064-.259.148-.514.228-.77.038-.122.021-.185-.09-.25a.509.509 0 0 0-.181-.07 2.219 2.219 0 0 0-1.024.084c-.104.034-.158.101-.19.208-.094.316-.173.64-.304.94-.53 1.216-1.077 2.427-1.623 3.637-.114.252-.247.497-.376.742-.032.063-.079.117-.119.176-.033-.039-.046-.064-.046-.092.001-.154-.017-.315.013-.465.089-.455.193-.907.302-1.358.09-.372.194-.74.295-1.111.033-.124.034-.239-.056-.344a.512.512 0 0 0-.646-.078c-.02.015-.044.024-.081.046l.016-.132c.039-.282.047-.565-.03-.844-.098-.348-.344-.547-.705-.537a1.54 1.54 0 0 0-.5.095c-.654.257-1.157.71-1.584 1.258a.54.54 0 0 1-.148.127c-.553.308-1.109.61-1.663.914-.208.113-.415.229-.618.338-.165-.158-.316-.321-.487-.461-.521-.426-1.053-.84-1.577-1.262-.466-.372-.917-.761-1.263-1.255-.257-.367-.422-.769-.438-1.224-.02-.579.145-1.107.438-1.6.378-.63.891-1.135 1.457-1.593a13.625 13.625 0 0 1 1.914-1.269c.938-.525 1.904-.99 2.937-1.297 1.061-.314 2.136-.494 3.246-.369.437.049.858.149 1.249.362.298.164.541.377.654.711.111.329.108.662.031.995-.158.676-.527 1.234-.994 1.732-.764.817-1.695 1.373-2.746 1.74a7.509 7.509 0 0 1-1.868.398 3.505 3.505 0 0 1-1.527-.184 1.988 1.988 0 0 1-.842-.572c-.042-.048-.094-.1-.17-.055-.074.045-.088.117-.061.189.041.121.08.244.146.351.163.269.402.464.666.632.505.321 1.07.429 1.656.454.89.038 1.758-.094 2.612-.333 1.222-.341 2.283-.942 3.135-1.891.709-.79 1.215-1.682 1.323-2.759.054-.526-.003-1.041-.249-1.52-.268-.52-.691-.878-1.197-1.143-.738-.387-1.536-.54-2.358-.584h-.824a9.848 9.848 0 0 0-2.899.599c-.708.258-1.404.548-2.079.885-1.469.735-2.839 1.614-3.963 2.831C.964 7.967.489 8.632.217 9.421c-.079.231-.129.476-.186.715-.004.02.019.039-.031.058v.337c.05.086.054.172.076.259.146.561.442 1.043.812 1.482.525.626 1.161 1.13 1.821 1.604.572.411 1.151.813 1.726 1.222.099.068.19.15.297.235-.092.05-.169.094-.249.135-.758.384-1.485.814-2.157 1.337-.405.314-.797.648-1.073 1.084-.445.702-.603 1.451-.271 2.25.098.234.245.437.454.584a.612.612 0 0 0 .222.115c.201.048.408.079.613.117h.58a3.62 3.62 0 0 0 1.753-.641c.824-.57 1.379-1.334 1.619-2.314a4.077 4.077 0 0 0-.023-2.134 2.098 2.098 0 0 0-.068-.193c-.025-.063-.054-.125-.088-.206l1.315-.756c.007.005.013.012.02.016-.024.08-.05.156-.071.236-.156.571-.26 1.152-.223 1.744.04.631.216 1.223.585 1.75.299.426 1.012.441 1.329.014a3.17 3.17 0 0 0 .304-.479c.215-.443.414-.894.617-1.343a.812.812 0 0 0 .036-.082c-.014.211-.032.398-.039.586-.013.289.004.58.104.855.084.237.229.414.502.444.185.022.333-.063.469-.171.214-.17.388-.376.516-.613.363-.668.737-1.331 1.066-2.018.355-.739.668-1.502.999-2.254.02-.043.034-.084.056-.135.078.309.133.608.232.895.117.33.263.654.418.968.076.149.066.245-.036.369-.433.521-.854 1.047-1.279 1.573a3.576 3.576 0 0 0-.267.361.679.679 0 0 0-.092.262.333.333 0 0 0 .266.377c.167.035.347.05.518.037a3.032 3.032 0 0 0 1.606-.604c.616-.457.813-1.079.665-1.817-.04-.201-.112-.396-.182-.588-.031-.087-.033-.148.023-.229.492-.704.913-1.451 1.305-2.213.017-.03.031-.061.059-.094.127.661.318 1.297.66 1.875-.176.168-.349.32-.504.488-.345.37-.644.771-.799 1.262-.066.211-.119.426-.089.652.046.352.333.578.679.499.736-.171 1.373-.519 1.838-1.134.313-.414.343-.876.211-1.36-.035-.131-.078-.262-.125-.413.183-.057.359-.123.543-.166.953-.217 1.896-.179 2.813.165.536.2.971.537 1.227 1.066.313.647.141 1.26-.471 1.668-.057.039-.121.069-.168.116a.162.162 0 0 0-.039.128c.004.024.066.053.103.053.2-.002.362-.106.519-.215.393-.271.648-.634.711-1.112 0-.014-.02-.027.03-.041v-.318c-.05-.013-.028-.025-.03-.039h-.01zM5.326 17.025c-.063.854-.45 1.545-1.082 2.104-.355.315-.763.54-1.238.618-.172.027-.349.035-.516-.037-.237-.102-.292-.313-.296-.538-.008-.358.118-.683.291-.991.225-.402.554-.709.906-.996.555-.451 1.156-.834 1.773-1.194.01-.007.021-.009.046-.021.096.356.143.702.116 1.055zm4.814-3.707a6.607 6.607 0 0 1-.181.809c-.275.914-.628 1.8-1.011 2.674-.07.162-.172.309-.262.463a.323.323 0 0 1-.055.063c-.11.108-.215.103-.271-.041a3.255 3.255 0 0 1-.14-.519c-.022-.119-.018-.242-.023-.363.007-.859.269-1.641.714-2.369.184-.301.384-.584.688-.775.094-.059.199-.104.306-.136.161-.045.262.031.235.194zm3.284 4.184l1.18-1.378c.048.512-.821 1.533-1.18 1.378zm3.769-.927c-.084.048-.176.083-.26.126-.078.041-.105 0-.106-.067a.387.387 0 0 1 .019-.138c.158-.563.45-1.042.889-1.432.006-.008.016-.008.031-.017a1.266 1.266 0 0 1-.573 1.528z"/></svg>