<svg xmlns="http://www.w3.org/2000/svg" width="24" height="24" viewBox="0 0 24 24"><path d="M.002 12c0 4.749 2.76 8.854 6.762 10.797L1.042 7.115A11.943 11.943 0 0 0 .002 12zm20.1-.605c0-1.483-.533-2.511-.99-3.31-.606-.989-1.176-1.825-1.176-2.815 0-1.103.832-2.129 2.015-2.129.052 0 .104.008.153.011A11.947 11.947 0 0 0 12.002 0C7.809 0 4.122 2.152 1.977 5.41c.283.008.546.015.772.015 1.256 0 3.198-.154 3.198-.154.646-.037.722.912.075.989 0 0-.648.076-1.372.115l4.37 12.996 2.626-7.875-1.87-5.122a23.183 23.183 0 0 1-1.258-.114c-.648-.039-.57-1.026.078-.989 0 0 1.979.154 3.158.154 1.256 0 3.2-.154 3.2-.154.644-.036.72.912.073.989 0 0-.647.076-1.371.115l4.337 12.896 1.196-3.998c.608-1.561.914-2.852.914-3.879l-.001.001zm-7.89 1.655L8.61 23.514c1.075.314 2.21.486 3.39.486 1.396 0 2.738-.243 3.984-.682a1.329 1.329 0 0 1-.086-.164L12.212 13.05zm10.317-6.807c.054.383.084.792.084 1.235 0 1.217-.229 2.585-.915 4.298l-3.665 10.595a11.99 11.99 0 0 0 5.965-10.37 11.93 11.93 0 0 0-1.471-5.758h.002z"/></svg>